<?xml version="1.0" standalone="no"?><!DOCTYPE svg PUBLIC "-//W3C//DTD SVG 1.1//EN" "http://www.w3.org/Graphics/SVG/1.1/DTD/svg11.dtd">
<svg t="1681368633576" class="icon" viewBox="0 0 1024 1024" version="1.1" xmlns="http://www.w3.org/2000/svg" p-id="3615"
     xmlns:xlink="http://www.w3.org/1999/xlink" width="100" height="100">
  <path
    d="M192.128 240.298667a42.666667 42.666667 0 0 1 58.24 15.872l71.552 125.226666A467.712 467.712 0 0 1 511.957333 341.333333c61.056 0 119.381333 11.648 172.885334 32.853334l67.413333-118.016a42.666667 42.666667 0 0 1 74.112 42.325333l-65.322667 114.304a469.333333 469.333333 0 0 1 217.941334 350.976A42.666667 42.666667 0 0 1 936.533333 810.666667H87.466667a42.666667 42.666667 0 0 1-42.453334-46.890667 469.12 469.12 0 0 1 202.410667-340.821333L176.256 298.496a42.666667 42.666667 0 0 1 15.872-58.197333zM320 661.333333a42.666667 42.666667 0 1 0 0-85.333333 42.666667 42.666667 0 0 0 0 85.333333z m426.666667-42.666666a42.666667 42.666667 0 1 0-85.333334 0 42.666667 42.666667 0 0 0 85.333334 0z"
    fill="#1dde81" fill-opacity=".15" p-id="3616"></path>
</svg>
