<?xml version="1.0" standalone="no"?><!DOCTYPE svg PUBLIC "-//W3C//DTD SVG 1.1//EN" "http://www.w3.org/Graphics/SVG/1.1/DTD/svg11.dtd">
<svg t="1681368588642" class="icon" viewBox="0 0 1024 1024" version="1.1" xmlns="http://www.w3.org/2000/svg" p-id="2617"
     xmlns:xlink="http://www.w3.org/1999/xlink" width="100" height="100">
  <path
    d="M812.2 550.8c-7.2-96.1 56.4-156.8 116.4-199-56.4-50.6-105.4-99.5-209.1-104.5-83.6-3.4-121.8 43.8-200 45.5-72.7 1.7-67.3-52.3-218.2-37.1C170.5 269.2 55.9 390.6 65 560.9c9.1 183.8 147.3 438.3 276.3 438.3 90.9-1.7 112.7-42.1 187.3-42.1 92.7 0 114.5 50.6 187.3 40.5C841.4 980.7 959.5 797 959.5 738c-69.1-33.8-138.2-91.1-147.3-187.2z m-105.4-526C534.1 46.7 485 193.4 494.1 260.8c132.7 6.7 232.7-123.1 212.7-236z"
    fill="#000000" fill-opacity=".07" p-id="2618"></path>
</svg>
